<mxfile host="app.diagrams.net" agent="Mozilla/5.0 (Windows NT 10.0; Win64; x64; rv:135.0) Gecko/20100101 Firefox/135.0" version="26.0.11" pages="4">
  <diagram name="Page-1" id="DpDlWnKAV-84pjB3DJ0x">
    <mxGraphModel dx="1562" dy="846" grid="1" gridSize="10" guides="1" tooltips="1" connect="1" arrows="1" fold="1" page="1" pageScale="1" pageWidth="850" pageHeight="1100" math="0" shadow="0">
      <root>
        <mxCell id="0" />
        <mxCell id="1" parent="0" />
        <mxCell id="SlR2cAAK_rUHOuZYbeG6-7" value="" style="group" parent="1" vertex="1" connectable="0">
          <mxGeometry x="40" y="90" width="190" height="300" as="geometry" />
        </mxCell>
        <mxCell id="SlR2cAAK_rUHOuZYbeG6-5" value="" style="group" parent="SlR2cAAK_rUHOuZYbeG6-7" vertex="1" connectable="0">
          <mxGeometry y="130" width="190" height="170" as="geometry" />
        </mxCell>
        <mxCell id="SlR2cAAK_rUHOuZYbeG6-1" value="&lt;div&gt;chunk_4032.txt&lt;/div&gt;" style="shape=note;whiteSpace=wrap;html=1;backgroundOutline=1;darkOpacity=0.05;" parent="SlR2cAAK_rUHOuZYbeG6-5" vertex="1">
          <mxGeometry x="80" width="110" height="90" as="geometry" />
        </mxCell>
        <mxCell id="SlR2cAAK_rUHOuZYbeG6-3" value="" style="shape=note;whiteSpace=wrap;html=1;backgroundOutline=1;darkOpacity=0.05;" parent="SlR2cAAK_rUHOuZYbeG6-5" vertex="1">
          <mxGeometry x="20" y="60" width="110" height="90" as="geometry" />
        </mxCell>
        <mxCell id="SlR2cAAK_rUHOuZYbeG6-2" value="" style="shape=note;whiteSpace=wrap;html=1;backgroundOutline=1;darkOpacity=0.05;" parent="SlR2cAAK_rUHOuZYbeG6-5" vertex="1">
          <mxGeometry x="10" y="70" width="110" height="90" as="geometry" />
        </mxCell>
        <mxCell id="SlR2cAAK_rUHOuZYbeG6-4" value="&lt;div&gt;chunk_1.txt&lt;/div&gt;" style="shape=note;whiteSpace=wrap;html=1;backgroundOutline=1;darkOpacity=0.05;" parent="SlR2cAAK_rUHOuZYbeG6-5" vertex="1">
          <mxGeometry y="80" width="110" height="90" as="geometry" />
        </mxCell>
        <mxCell id="SlR2cAAK_rUHOuZYbeG6-6" value="&lt;h1 style=&quot;margin-top: 0px;&quot;&gt;Chunk Files&lt;br&gt;&lt;/h1&gt;&lt;p&gt;The alphabetized list of 43 million SoundCloud users was split into text files containing 10k names.&lt;br&gt;&lt;/p&gt;" style="text;html=1;whiteSpace=wrap;overflow=hidden;rounded=0;" parent="SlR2cAAK_rUHOuZYbeG6-7" vertex="1">
          <mxGeometry width="180" height="100" as="geometry" />
        </mxCell>
        <mxCell id="SlR2cAAK_rUHOuZYbeG6-8" value="" style="shape=flexArrow;endArrow=classic;html=1;rounded=0;" parent="1" edge="1">
          <mxGeometry width="50" height="50" relative="1" as="geometry">
            <mxPoint x="260" y="280" as="sourcePoint" />
            <mxPoint x="330" y="280" as="targetPoint" />
          </mxGeometry>
        </mxCell>
        <mxCell id="SlR2cAAK_rUHOuZYbeG6-11" value="" style="group" parent="1" vertex="1" connectable="0">
          <mxGeometry x="335" y="90" width="180" height="240" as="geometry" />
        </mxCell>
        <mxCell id="SlR2cAAK_rUHOuZYbeG6-9" value="Shuffled Chunk Queue" style="shape=cylinder3;whiteSpace=wrap;html=1;boundedLbl=1;backgroundOutline=1;size=15;" parent="SlR2cAAK_rUHOuZYbeG6-11" vertex="1">
          <mxGeometry x="5" y="140" width="150" height="100" as="geometry" />
        </mxCell>
        <mxCell id="SlR2cAAK_rUHOuZYbeG6-10" value="&lt;h1 style=&quot;margin-top: 0px;&quot;&gt;Chunk Stack&lt;br&gt;&lt;/h1&gt;&lt;p&gt;A list of those chunk files are loaded into a queue and shuffled. Actors pop a chunk file from the queue to receive their assignment.&lt;br&gt;&lt;/p&gt;" style="text;html=1;whiteSpace=wrap;overflow=hidden;rounded=0;" parent="SlR2cAAK_rUHOuZYbeG6-11" vertex="1">
          <mxGeometry width="180" height="120" as="geometry" />
        </mxCell>
        <mxCell id="x2DUa5_C8dmcZF0htxA7-1" value="" style="swimlane;startSize=0;" parent="1" vertex="1">
          <mxGeometry x="45" y="570" width="70" height="300" as="geometry" />
        </mxCell>
        <mxCell id="x2DUa5_C8dmcZF0htxA7-2" value="Actor 32" style="shape=umlActor;verticalLabelPosition=bottom;verticalAlign=top;html=1;outlineConnect=0;" parent="x2DUa5_C8dmcZF0htxA7-1" vertex="1">
          <mxGeometry x="20" y="200" width="30" height="60" as="geometry" />
        </mxCell>
        <mxCell id="x2DUa5_C8dmcZF0htxA7-3" value="" style="group" parent="x2DUa5_C8dmcZF0htxA7-1" vertex="1" connectable="0">
          <mxGeometry x="20" y="20" width="30" height="150" as="geometry" />
        </mxCell>
        <mxCell id="x2DUa5_C8dmcZF0htxA7-4" value="Actor 1" style="shape=umlActor;verticalLabelPosition=bottom;verticalAlign=top;html=1;outlineConnect=0;" parent="x2DUa5_C8dmcZF0htxA7-3" vertex="1">
          <mxGeometry width="30" height="60" as="geometry" />
        </mxCell>
        <mxCell id="x2DUa5_C8dmcZF0htxA7-5" value="Actor 2" style="shape=umlActor;verticalLabelPosition=bottom;verticalAlign=top;html=1;outlineConnect=0;" parent="x2DUa5_C8dmcZF0htxA7-3" vertex="1">
          <mxGeometry y="90" width="30" height="60" as="geometry" />
        </mxCell>
        <mxCell id="x2DUa5_C8dmcZF0htxA7-6" value="&lt;h1 style=&quot;margin-top: 0px;&quot;&gt;Orchestra&lt;br&gt;&lt;/h1&gt;&lt;p&gt;An orchestra is composed of many actors, in our case 32 actors, which independently interact with an API&lt;br&gt;&lt;/p&gt;" style="text;html=1;whiteSpace=wrap;overflow=hidden;rounded=0;" parent="1" vertex="1">
          <mxGeometry x="45" y="440" width="180" height="120" as="geometry" />
        </mxCell>
      </root>
    </mxGraphModel>
  </diagram>
  <diagram id="NP3MdG7hftcIJVdlTpGX" name="Page-2">
    <mxGraphModel dx="1743" dy="483" grid="1" gridSize="10" guides="1" tooltips="1" connect="1" arrows="1" fold="1" page="1" pageScale="1" pageWidth="850" pageHeight="2000" math="0" shadow="0">
      <root>
        <mxCell id="0" />
        <mxCell id="1" parent="0" />
        <mxCell id="f8z23lzlpKteGHe-yHH6-2" style="edgeStyle=orthogonalEdgeStyle;rounded=0;orthogonalLoop=1;jettySize=auto;html=1;exitX=1;exitY=0.5;exitDx=0;exitDy=0;exitPerimeter=0;entryX=0;entryY=0.5;entryDx=0;entryDy=0;" edge="1" parent="1" source="DZvKfD5Jq2t14P56vsYS-7" target="f8z23lzlpKteGHe-yHH6-1">
          <mxGeometry relative="1" as="geometry" />
        </mxCell>
        <mxCell id="DZvKfD5Jq2t14P56vsYS-7" value="&lt;div&gt;Shuffled&lt;/div&gt;&lt;div&gt;Chunk Queue&lt;br&gt;&lt;/div&gt;" style="shape=cylinder3;whiteSpace=wrap;html=1;boundedLbl=1;backgroundOutline=1;size=15;" parent="1" vertex="1">
          <mxGeometry x="-830" y="340" width="140" height="80" as="geometry" />
        </mxCell>
        <mxCell id="f8z23lzlpKteGHe-yHH6-1" value="Orchestrator" style="rounded=1;whiteSpace=wrap;html=1;absoluteArcSize=1;arcSize=14;strokeWidth=2;" vertex="1" parent="1">
          <mxGeometry x="-640" y="330" width="100" height="100" as="geometry" />
        </mxCell>
        <mxCell id="f8z23lzlpKteGHe-yHH6-3" value="Actor 1" style="shape=umlActor;verticalLabelPosition=bottom;verticalAlign=top;html=1;outlineConnect=0;" vertex="1" parent="1">
          <mxGeometry x="-440" y="230" width="30" height="60" as="geometry" />
        </mxCell>
        <mxCell id="f8z23lzlpKteGHe-yHH6-4" value="Actor 2" style="shape=umlActor;verticalLabelPosition=bottom;verticalAlign=top;html=1;outlineConnect=0;" vertex="1" parent="1">
          <mxGeometry x="-440" y="350" width="30" height="60" as="geometry" />
        </mxCell>
        <mxCell id="f8z23lzlpKteGHe-yHH6-5" value="Actor 32" style="shape=umlActor;verticalLabelPosition=bottom;verticalAlign=top;html=1;outlineConnect=0;" vertex="1" parent="1">
          <mxGeometry x="-440" y="440" width="30" height="60" as="geometry" />
        </mxCell>
        <mxCell id="f8z23lzlpKteGHe-yHH6-10" value="" style="endArrow=classic;startArrow=classic;html=1;rounded=0;exitX=1;exitY=0.25;exitDx=0;exitDy=0;entryX=0.5;entryY=0.5;entryDx=0;entryDy=0;entryPerimeter=0;" edge="1" parent="1" source="f8z23lzlpKteGHe-yHH6-1" target="f8z23lzlpKteGHe-yHH6-3">
          <mxGeometry width="50" height="50" relative="1" as="geometry">
            <mxPoint x="-370" y="350" as="sourcePoint" />
            <mxPoint x="-320" y="300" as="targetPoint" />
          </mxGeometry>
        </mxCell>
        <mxCell id="f8z23lzlpKteGHe-yHH6-11" value="" style="endArrow=classic;startArrow=classic;html=1;rounded=0;exitX=1;exitY=0.5;exitDx=0;exitDy=0;entryX=0.5;entryY=0.5;entryDx=0;entryDy=0;entryPerimeter=0;" edge="1" parent="1" source="f8z23lzlpKteGHe-yHH6-1" target="f8z23lzlpKteGHe-yHH6-4">
          <mxGeometry width="50" height="50" relative="1" as="geometry">
            <mxPoint x="-370" y="350" as="sourcePoint" />
            <mxPoint x="-320" y="300" as="targetPoint" />
          </mxGeometry>
        </mxCell>
        <mxCell id="f8z23lzlpKteGHe-yHH6-12" value="" style="endArrow=classic;startArrow=classic;html=1;rounded=0;entryX=0.5;entryY=0.5;entryDx=0;entryDy=0;entryPerimeter=0;exitX=1;exitY=0.75;exitDx=0;exitDy=0;" edge="1" parent="1" source="f8z23lzlpKteGHe-yHH6-1" target="f8z23lzlpKteGHe-yHH6-5">
          <mxGeometry width="50" height="50" relative="1" as="geometry">
            <mxPoint x="-500" y="400" as="sourcePoint" />
            <mxPoint x="-320" y="300" as="targetPoint" />
          </mxGeometry>
        </mxCell>
        <mxCell id="f8z23lzlpKteGHe-yHH6-13" value="Scraped JSON Data" style="strokeWidth=2;html=1;shape=mxgraph.flowchart.multi-document;whiteSpace=wrap;" vertex="1" parent="1">
          <mxGeometry x="-320" y="350" width="170" height="60" as="geometry" />
        </mxCell>
        <mxCell id="f8z23lzlpKteGHe-yHH6-14" value="" style="endArrow=classic;html=1;rounded=0;exitX=0.5;exitY=0.5;exitDx=0;exitDy=0;exitPerimeter=0;entryX=0;entryY=0.5;entryDx=0;entryDy=0;entryPerimeter=0;" edge="1" parent="1" source="f8z23lzlpKteGHe-yHH6-4" target="f8z23lzlpKteGHe-yHH6-13">
          <mxGeometry width="50" height="50" relative="1" as="geometry">
            <mxPoint x="-360" y="380" as="sourcePoint" />
            <mxPoint x="-310" y="330" as="targetPoint" />
          </mxGeometry>
        </mxCell>
        <mxCell id="f8z23lzlpKteGHe-yHH6-15" value="" style="endArrow=classic;html=1;rounded=0;exitX=0.5;exitY=0.5;exitDx=0;exitDy=0;exitPerimeter=0;entryX=0;entryY=0.167;entryDx=0;entryDy=0;entryPerimeter=0;" edge="1" parent="1" source="f8z23lzlpKteGHe-yHH6-3" target="f8z23lzlpKteGHe-yHH6-13">
          <mxGeometry width="50" height="50" relative="1" as="geometry">
            <mxPoint x="-360" y="380" as="sourcePoint" />
            <mxPoint x="-330" y="290" as="targetPoint" />
          </mxGeometry>
        </mxCell>
        <mxCell id="f8z23lzlpKteGHe-yHH6-16" value="" style="endArrow=classic;html=1;rounded=0;exitX=0.5;exitY=0.5;exitDx=0;exitDy=0;exitPerimeter=0;entryX=0;entryY=0.91;entryDx=0;entryDy=0;entryPerimeter=0;" edge="1" parent="1" source="f8z23lzlpKteGHe-yHH6-5" target="f8z23lzlpKteGHe-yHH6-13">
          <mxGeometry width="50" height="50" relative="1" as="geometry">
            <mxPoint x="-360" y="380" as="sourcePoint" />
            <mxPoint x="-310" y="330" as="targetPoint" />
          </mxGeometry>
        </mxCell>
      </root>
    </mxGraphModel>
  </diagram>
  <diagram id="ygvViYtlgQalVS0yz0zG" name="Page-3">
    <mxGraphModel dx="1594" dy="403" grid="1" gridSize="10" guides="1" tooltips="1" connect="1" arrows="1" fold="1" page="1" pageScale="1" pageWidth="850" pageHeight="2000" math="0" shadow="0">
      <root>
        <mxCell id="0" />
        <mxCell id="1" parent="0" />
        <mxCell id="XRQlV7-PSPFr6FjUoxLf-4" style="edgeStyle=orthogonalEdgeStyle;rounded=0;orthogonalLoop=1;jettySize=auto;html=1;exitX=1;exitY=0.5;exitDx=0;exitDy=0;exitPerimeter=0;" edge="1" parent="1" source="XRQlV7-PSPFr6FjUoxLf-1" target="XRQlV7-PSPFr6FjUoxLf-2">
          <mxGeometry relative="1" as="geometry">
            <Array as="points">
              <mxPoint x="-600" y="170" />
            </Array>
          </mxGeometry>
        </mxCell>
        <mxCell id="XRQlV7-PSPFr6FjUoxLf-1" value="Transcoding Field" style="strokeWidth=2;html=1;shape=mxgraph.flowchart.multi-document;whiteSpace=wrap;" vertex="1" parent="1">
          <mxGeometry x="-770" y="150" width="170" height="60" as="geometry" />
        </mxCell>
        <mxCell id="XRQlV7-PSPFr6FjUoxLf-9" style="edgeStyle=orthogonalEdgeStyle;rounded=0;orthogonalLoop=1;jettySize=auto;html=1;exitX=0.5;exitY=0.5;exitDx=0;exitDy=0;exitPerimeter=0;entryX=0;entryY=0.5;entryDx=0;entryDy=0;" edge="1" parent="1" source="XRQlV7-PSPFr6FjUoxLf-2" target="XRQlV7-PSPFr6FjUoxLf-8">
          <mxGeometry relative="1" as="geometry" />
        </mxCell>
        <mxCell id="XRQlV7-PSPFr6FjUoxLf-2" value="&lt;div&gt;Rate Limited Actor&lt;/div&gt;" style="shape=umlActor;verticalLabelPosition=bottom;verticalAlign=top;html=1;outlineConnect=0;" vertex="1" parent="1">
          <mxGeometry x="-490" y="140" width="30" height="60" as="geometry" />
        </mxCell>
        <mxCell id="XRQlV7-PSPFr6FjUoxLf-5" style="edgeStyle=orthogonalEdgeStyle;rounded=0;orthogonalLoop=1;jettySize=auto;html=1;exitX=1;exitY=0.5;exitDx=0;exitDy=0;" edge="1" parent="1" source="XRQlV7-PSPFr6FjUoxLf-3" target="XRQlV7-PSPFr6FjUoxLf-2">
          <mxGeometry relative="1" as="geometry" />
        </mxCell>
        <mxCell id="XRQlV7-PSPFr6FjUoxLf-3" value="SoundCloud ClientID" style="shape=document;whiteSpace=wrap;html=1;boundedLbl=1;" vertex="1" parent="1">
          <mxGeometry x="-750" y="30" width="120" height="80" as="geometry" />
        </mxCell>
        <mxCell id="XRQlV7-PSPFr6FjUoxLf-7" value="Track Mass Storage" style="shape=cylinder3;whiteSpace=wrap;html=1;boundedLbl=1;backgroundOutline=1;size=15;" vertex="1" parent="1">
          <mxGeometry x="-370" y="190" width="160" height="80" as="geometry" />
        </mxCell>
        <mxCell id="XRQlV7-PSPFr6FjUoxLf-8" value="Progress Report" style="shape=document;whiteSpace=wrap;html=1;boundedLbl=1;" vertex="1" parent="1">
          <mxGeometry x="-370" y="70" width="120" height="80" as="geometry" />
        </mxCell>
        <mxCell id="XRQlV7-PSPFr6FjUoxLf-10" style="edgeStyle=orthogonalEdgeStyle;rounded=0;orthogonalLoop=1;jettySize=auto;html=1;exitX=0.5;exitY=0.5;exitDx=0;exitDy=0;exitPerimeter=0;entryX=-0.001;entryY=0.558;entryDx=0;entryDy=0;entryPerimeter=0;" edge="1" parent="1" source="XRQlV7-PSPFr6FjUoxLf-2" target="XRQlV7-PSPFr6FjUoxLf-7">
          <mxGeometry relative="1" as="geometry" />
        </mxCell>
      </root>
    </mxGraphModel>
  </diagram>
  <diagram id="JwmcKIlQWDrArwdyxnbH" name="Page-4">
    <mxGraphModel dx="819" dy="443" grid="1" gridSize="10" guides="1" tooltips="1" connect="1" arrows="1" fold="1" page="1" pageScale="1" pageWidth="850" pageHeight="1100" math="0" shadow="0">
      <root>
        <mxCell id="0" />
        <mxCell id="1" parent="0" />
        <mxCell id="-OtSsRVXlv4wdDuy8pDX-5" value="&lt;div style=&quot;box-sizing: border-box; width: 100%; background: rgb(228, 228, 228); padding: 2px;&quot;&gt;Users&lt;/div&gt;&lt;table style=&quot;width:100%;font-size:1em;&quot; cellpadding=&quot;2&quot; cellspacing=&quot;0&quot;&gt;&lt;tbody&gt;&lt;tr&gt;&lt;td&gt;PK&lt;/td&gt;&lt;td&gt;id : AUTO INC INTEGER&lt;/td&gt;&lt;/tr&gt;&lt;tr&gt;&lt;td&gt;FK1&lt;br&gt;&lt;br&gt;&lt;/td&gt;&lt;td&gt;SHA256 Hash : INTEGER&lt;br&gt;User_URL : TEXT&lt;/td&gt;&lt;/tr&gt;&lt;tr&gt;&lt;td&gt;&lt;/td&gt;&lt;td&gt;Scraped : INTEGER&lt;br&gt;Checked_Out : INTEGER&lt;/td&gt;&lt;/tr&gt;&lt;/tbody&gt;&lt;/table&gt;" style="verticalAlign=top;align=left;overflow=fill;html=1;whiteSpace=wrap;" vertex="1" parent="1">
          <mxGeometry x="660" y="510" width="260" height="122" as="geometry" />
        </mxCell>
        <mxCell id="-OtSsRVXlv4wdDuy8pDX-7" value="Actor 1" style="shape=umlActor;verticalLabelPosition=bottom;verticalAlign=top;html=1;" vertex="1" parent="1">
          <mxGeometry x="180" y="600" width="30" height="60" as="geometry" />
        </mxCell>
        <mxCell id="-OtSsRVXlv4wdDuy8pDX-8" value="&lt;div&gt;Residential&lt;/div&gt;&lt;div&gt;Proxy&lt;/div&gt;&lt;div&gt;Pool&lt;/div&gt;" style="ellipse;shape=cloud;whiteSpace=wrap;html=1;" vertex="1" parent="1">
          <mxGeometry x="130" y="360" width="230" height="110" as="geometry" />
        </mxCell>
        <mxCell id="-OtSsRVXlv4wdDuy8pDX-9" value="Actor N" style="shape=umlActor;verticalLabelPosition=bottom;verticalAlign=top;html=1;" vertex="1" parent="1">
          <mxGeometry x="290" y="600" width="30" height="60" as="geometry" />
        </mxCell>
        <mxCell id="-OtSsRVXlv4wdDuy8pDX-12" value="" style="endArrow=none;dashed=1;html=1;dashPattern=1 3;strokeWidth=2;rounded=0;" edge="1" parent="1" source="-OtSsRVXlv4wdDuy8pDX-7" target="-OtSsRVXlv4wdDuy8pDX-9">
          <mxGeometry width="50" height="50" relative="1" as="geometry">
            <mxPoint x="220" y="640" as="sourcePoint" />
            <mxPoint x="270" y="590" as="targetPoint" />
          </mxGeometry>
        </mxCell>
        <mxCell id="-OtSsRVXlv4wdDuy8pDX-16" value="SoundCloud" style="ellipse;shape=cloud;whiteSpace=wrap;html=1;" vertex="1" parent="1">
          <mxGeometry x="142.5" y="140" width="205" height="130" as="geometry" />
        </mxCell>
        <mxCell id="-OtSsRVXlv4wdDuy8pDX-21" value="&lt;div style=&quot;box-sizing: border-box; width: 100%; background: rgb(228, 228, 228); padding: 2px;&quot;&gt;Tracks&lt;/div&gt;&lt;table style=&quot;width:100%;font-size:1em;&quot; cellpadding=&quot;2&quot; cellspacing=&quot;0&quot;&gt;&lt;tbody&gt;&lt;tr&gt;&lt;td&gt;PK&lt;/td&gt;&lt;td&gt;id : AUTO INC INTEGER&lt;/td&gt;&lt;/tr&gt;&lt;tr&gt;&lt;td&gt;FK1&lt;br&gt;&lt;br&gt;&lt;/td&gt;&lt;td&gt;SHA256 Hash : INTEGER&lt;br&gt;Track_URL : TEXT&lt;/td&gt;&lt;/tr&gt;&lt;tr&gt;&lt;td&gt;&lt;/td&gt;&lt;td&gt;Scraped : INTEGER&lt;br&gt;Checked_Out : INTEGER&lt;br&gt;Audio_Downloaded : INTEGER&lt;br&gt;Json_Path : TEXT&lt;br&gt;Audio_Path : TEXT&lt;/td&gt;&lt;/tr&gt;&lt;/tbody&gt;&lt;/table&gt;&lt;div&gt;&lt;br&gt;&lt;/div&gt;&lt;div&gt;&lt;br&gt;&lt;/div&gt;" style="verticalAlign=top;align=left;overflow=fill;html=1;whiteSpace=wrap;" vertex="1" parent="1">
          <mxGeometry x="660" y="664" width="260" height="156" as="geometry" />
        </mxCell>
        <mxCell id="-OtSsRVXlv4wdDuy8pDX-22" value="&lt;div&gt;SQLITE&lt;/div&gt;&lt;div&gt;DB&lt;/div&gt;" style="shape=cylinder3;whiteSpace=wrap;html=1;boundedLbl=1;backgroundOutline=1;size=15;" vertex="1" parent="1">
          <mxGeometry x="450" y="590" width="60" height="80" as="geometry" />
        </mxCell>
        <mxCell id="-OtSsRVXlv4wdDuy8pDX-23" value="" style="endArrow=classic;startArrow=classic;html=1;rounded=0;exitX=0.5;exitY=0.5;exitDx=0;exitDy=0;exitPerimeter=0;entryX=0;entryY=0.5;entryDx=0;entryDy=0;entryPerimeter=0;flowAnimation=0;" edge="1" parent="1" source="-OtSsRVXlv4wdDuy8pDX-9" target="-OtSsRVXlv4wdDuy8pDX-22">
          <mxGeometry width="50" height="50" relative="1" as="geometry">
            <mxPoint x="420" y="570" as="sourcePoint" />
            <mxPoint x="440" y="630" as="targetPoint" />
          </mxGeometry>
        </mxCell>
        <mxCell id="-OtSsRVXlv4wdDuy8pDX-26" value="" style="endArrow=none;html=1;rounded=0;exitX=1;exitY=0.5;exitDx=0;exitDy=0;exitPerimeter=0;entryX=0;entryY=0.5;entryDx=0;entryDy=0;" edge="1" parent="1" source="-OtSsRVXlv4wdDuy8pDX-22" target="-OtSsRVXlv4wdDuy8pDX-5">
          <mxGeometry width="50" height="50" relative="1" as="geometry">
            <mxPoint x="550" y="600" as="sourcePoint" />
            <mxPoint x="600" y="550" as="targetPoint" />
          </mxGeometry>
        </mxCell>
        <mxCell id="-OtSsRVXlv4wdDuy8pDX-27" value="" style="endArrow=none;html=1;rounded=0;exitX=1;exitY=0.5;exitDx=0;exitDy=0;exitPerimeter=0;entryX=0;entryY=0.5;entryDx=0;entryDy=0;" edge="1" parent="1" source="-OtSsRVXlv4wdDuy8pDX-22" target="-OtSsRVXlv4wdDuy8pDX-21">
          <mxGeometry width="50" height="50" relative="1" as="geometry">
            <mxPoint x="550" y="750" as="sourcePoint" />
            <mxPoint x="600" y="700" as="targetPoint" />
          </mxGeometry>
        </mxCell>
        <mxCell id="-OtSsRVXlv4wdDuy8pDX-28" value="Track Scaper" style="shape=umlActor;verticalLabelPosition=bottom;verticalAlign=top;html=1;" vertex="1" parent="1">
          <mxGeometry x="630" y="350" width="30" height="60" as="geometry" />
        </mxCell>
        <mxCell id="-OtSsRVXlv4wdDuy8pDX-29" value="" style="endArrow=classic;startArrow=classic;html=1;rounded=0;entryX=0.55;entryY=0.95;entryDx=0;entryDy=0;entryPerimeter=0;" edge="1" parent="1" target="-OtSsRVXlv4wdDuy8pDX-8">
          <mxGeometry width="50" height="50" relative="1" as="geometry">
            <mxPoint x="240" y="630" as="sourcePoint" />
            <mxPoint x="370" y="490" as="targetPoint" />
          </mxGeometry>
        </mxCell>
        <mxCell id="-OtSsRVXlv4wdDuy8pDX-30" value="" style="endArrow=classic;startArrow=classic;html=1;rounded=0;exitX=0.515;exitY=0.1;exitDx=0;exitDy=0;exitPerimeter=0;entryX=0.55;entryY=0.95;entryDx=0;entryDy=0;entryPerimeter=0;" edge="1" parent="1" source="-OtSsRVXlv4wdDuy8pDX-8" target="-OtSsRVXlv4wdDuy8pDX-16">
          <mxGeometry width="50" height="50" relative="1" as="geometry">
            <mxPoint x="260" y="340" as="sourcePoint" />
            <mxPoint x="310" y="290" as="targetPoint" />
          </mxGeometry>
        </mxCell>
        <mxCell id="-OtSsRVXlv4wdDuy8pDX-31" value="" style="endArrow=classic;startArrow=classic;html=1;rounded=0;exitX=0.775;exitY=0.186;exitDx=0;exitDy=0;exitPerimeter=0;entryX=0.752;entryY=0.885;entryDx=0;entryDy=0;entryPerimeter=0;" edge="1" parent="1" source="-OtSsRVXlv4wdDuy8pDX-8" target="-OtSsRVXlv4wdDuy8pDX-16">
          <mxGeometry width="50" height="50" relative="1" as="geometry">
            <mxPoint x="310" y="360" as="sourcePoint" />
            <mxPoint x="360" y="310" as="targetPoint" />
          </mxGeometry>
        </mxCell>
        <mxCell id="-OtSsRVXlv4wdDuy8pDX-32" value="" style="endArrow=classic;startArrow=classic;html=1;rounded=0;exitX=0.177;exitY=0.29;exitDx=0;exitDy=0;exitPerimeter=0;entryX=0.256;entryY=0.816;entryDx=0;entryDy=0;entryPerimeter=0;" edge="1" parent="1" source="-OtSsRVXlv4wdDuy8pDX-8" target="-OtSsRVXlv4wdDuy8pDX-16">
          <mxGeometry width="50" height="50" relative="1" as="geometry">
            <mxPoint x="150" y="360" as="sourcePoint" />
            <mxPoint x="200" y="310" as="targetPoint" />
          </mxGeometry>
        </mxCell>
        <mxCell id="-OtSsRVXlv4wdDuy8pDX-33" value="" style="endArrow=classic;startArrow=classic;html=1;rounded=0;exitX=0.5;exitY=0;exitDx=0;exitDy=0;exitPerimeter=0;" edge="1" parent="1" source="-OtSsRVXlv4wdDuy8pDX-22">
          <mxGeometry width="50" height="50" relative="1" as="geometry">
            <mxPoint x="580" y="480" as="sourcePoint" />
            <mxPoint x="610" y="440" as="targetPoint" />
          </mxGeometry>
        </mxCell>
        <mxCell id="-OtSsRVXlv4wdDuy8pDX-34" value="" style="endArrow=classic;startArrow=classic;html=1;rounded=0;exitX=0.96;exitY=0.7;exitDx=0;exitDy=0;exitPerimeter=0;entryX=0.25;entryY=0.1;entryDx=0;entryDy=0;entryPerimeter=0;" edge="1" parent="1" source="-OtSsRVXlv4wdDuy8pDX-16" target="-OtSsRVXlv4wdDuy8pDX-28">
          <mxGeometry width="50" height="50" relative="1" as="geometry">
            <mxPoint x="440" y="340" as="sourcePoint" />
            <mxPoint x="490" y="290" as="targetPoint" />
          </mxGeometry>
        </mxCell>
        <mxCell id="-OtSsRVXlv4wdDuy8pDX-35" value="&lt;div&gt;JSON&lt;/div&gt;&lt;div&gt;Store&lt;/div&gt;" style="shape=cylinder3;whiteSpace=wrap;html=1;boundedLbl=1;backgroundOutline=1;size=15;" vertex="1" parent="1">
          <mxGeometry x="450" y="710" width="60" height="80" as="geometry" />
        </mxCell>
        <mxCell id="-OtSsRVXlv4wdDuy8pDX-36" value="" style="endArrow=classic;html=1;rounded=0;exitX=0.5;exitY=0.5;exitDx=0;exitDy=0;exitPerimeter=0;entryX=0;entryY=0.5;entryDx=0;entryDy=0;entryPerimeter=0;flowAnimation=0;" edge="1" parent="1" source="-OtSsRVXlv4wdDuy8pDX-9" target="-OtSsRVXlv4wdDuy8pDX-35">
          <mxGeometry width="50" height="50" relative="1" as="geometry">
            <mxPoint x="360" y="710" as="sourcePoint" />
            <mxPoint x="410" y="660" as="targetPoint" />
          </mxGeometry>
        </mxCell>
        <mxCell id="-OtSsRVXlv4wdDuy8pDX-38" value="&lt;div&gt;AUDIO&lt;/div&gt;&lt;div&gt;Store&lt;/div&gt;" style="shape=cylinder3;whiteSpace=wrap;html=1;boundedLbl=1;backgroundOutline=1;size=15;" vertex="1" parent="1">
          <mxGeometry x="450" y="430" width="60" height="80" as="geometry" />
        </mxCell>
        <mxCell id="-OtSsRVXlv4wdDuy8pDX-40" value="" style="endArrow=classic;html=1;rounded=0;exitX=0.5;exitY=0.5;exitDx=0;exitDy=0;exitPerimeter=0;entryX=1;entryY=0.5;entryDx=0;entryDy=0;entryPerimeter=0;flowAnimation=0;" edge="1" parent="1" source="-OtSsRVXlv4wdDuy8pDX-28" target="-OtSsRVXlv4wdDuy8pDX-38">
          <mxGeometry width="50" height="50" relative="1" as="geometry">
            <mxPoint x="510" y="420" as="sourcePoint" />
            <mxPoint x="560" y="370" as="targetPoint" />
          </mxGeometry>
        </mxCell>
      </root>
    </mxGraphModel>
  </diagram>
</mxfile>
